<svg viewBox="0 0 12 19" fill="none" xmlns="http://www.w3.org/2000/svg">
    <path d="M3.4499 9.50089L10.7374 16.7884C10.9707 17.0217 11.0853 17.2967 11.0812 17.6134C11.077 17.9301 10.9582 18.2051 10.7249 18.4384C10.4916 18.6717 10.2166 18.7884 9.8999 18.7884C9.58324 18.7884 9.30824 18.6717 9.0749 18.4384L1.4499 10.8259C1.25824 10.6342 1.11865 10.4259 1.03115 10.2009C0.943652 9.97589 0.899902 9.74256 0.899902 9.50089C0.899902 9.25922 0.943652 9.02589 1.03115 8.80089C1.11865 8.57589 1.25824 8.36756 1.4499 8.17589L9.0749 0.550891C9.30824 0.317558 9.58532 0.202974 9.90615 0.207141C10.227 0.211308 10.5041 0.330058 10.7374 0.563391C10.9707 0.796724 11.0874 1.07172 11.0874 1.38839C11.0874 1.70506 10.9707 1.98006 10.7374 2.21339L3.4499 9.50089Z" fill="#F7F7F8"/>
</svg>
    