<svg width="24" height="25" viewBox="0 0 24 25" fill="none" xmlns="http://www.w3.org/2000/svg">
<mask id="mask0_499_8012" style="mask-type:alpha" maskUnits="userSpaceOnUse" x="0" y="0" width="24" height="25">
<rect y="0.5" width="24" height="24" fill="currentColor"/>
</mask>
<g mask="url(#mask0_499_8012)">
<path d="M9.4499 12.5009L16.7374 19.7884C16.9707 20.0217 17.0853 20.2967 17.0812 20.6134C17.077 20.9301 16.9582 21.2051 16.7249 21.4384C16.4916 21.6717 16.2166 21.7884 15.8999 21.7884C15.5832 21.7884 15.3082 21.6717 15.0749 21.4384L7.4499 13.8259C7.25824 13.6342 7.11865 13.4259 7.03115 13.2009C6.94365 12.9759 6.8999 12.7426 6.8999 12.5009C6.8999 12.2592 6.94365 12.0259 7.03115 11.8009C7.11865 11.5759 7.25824 11.3676 7.4499 11.1759L15.0749 3.55089C15.3082 3.31756 15.5853 3.20297 15.9062 3.20714C16.227 3.21131 16.5041 3.33006 16.7374 3.56339C16.9707 3.79672 17.0874 4.07172 17.0874 4.38839C17.0874 4.70506 16.9707 4.98006 16.7374 5.21339L9.4499 12.5009Z" fill="currentColor"/>
</g>
</svg>
