<svg width="10" height="11" viewBox="0 0 10 11" fill="none" xmlns="http://www.w3.org/2000/svg">
    <path d="M4.99686 8.15039C4.91686 8.15039 4.84186 8.1365 4.77186 8.10872C4.70186 8.08095 4.63908 8.03928 4.58353 7.98372L2.21686 5.61706C2.09464 5.49583 2.03631 5.35445 2.04186 5.19289C2.04742 5.03122 2.10864 4.88928 2.22553 4.76706C2.35308 4.64483 2.49742 4.58372 2.65853 4.58372C2.81964 4.58372 2.96131 4.64483 3.08353 4.76706L4.4002 6.10039V1.00039C4.4002 0.830391 4.45736 0.68789 4.5717 0.57289C4.68603 0.45789 4.8277 0.400391 4.9967 0.400391C5.1657 0.400391 5.30853 0.45789 5.4252 0.57289C5.54186 0.68789 5.6002 0.830391 5.6002 1.00039V6.10039L6.93353 4.76706C7.05208 4.64483 7.19281 4.5865 7.3557 4.59206C7.5187 4.59761 7.66397 4.6615 7.79153 4.78372C7.90842 4.90595 7.96686 5.04761 7.96686 5.20872C7.96686 5.36983 7.90575 5.5115 7.78353 5.63372L5.41686 7.98372C5.35686 8.03928 5.29186 8.08095 5.22186 8.10872C5.15186 8.1365 5.07686 8.15039 4.99686 8.15039ZM1.39553 10.8004C1.06531 10.8004 0.783529 10.6829 0.550195 10.4479C0.316862 10.2129 0.200195 9.93039 0.200195 9.60039V9.00039C0.200195 8.83039 0.257362 8.68789 0.371695 8.57289C0.486029 8.45789 0.627695 8.40039 0.796695 8.40039C0.965695 8.40039 1.10853 8.45789 1.2252 8.57289C1.34186 8.68789 1.4002 8.83039 1.4002 9.00039V9.60039H8.6002V9.00039C8.6002 8.83039 8.65736 8.68789 8.7717 8.57289C8.88603 8.45789 9.02769 8.40039 9.1967 8.40039C9.36569 8.40039 9.50853 8.45789 9.6252 8.57289C9.74186 8.68789 9.8002 8.83039 9.8002 9.00039V9.60039C9.8002 9.93039 9.68264 10.2129 9.44753 10.4479C9.21242 10.6829 8.92975 10.8004 8.59953 10.8004H1.39553Z" fill="#F7F7F8"/>
</svg>
    