<svg width="12" height="12" viewBox="0 0 12 12" fill="none" xmlns="http://www.w3.org/2000/svg">
    <path d="M1.5999 10.4004H2.4499L8.6999 4.15039L7.8499 3.30039L1.5999 9.55039V10.4004ZM1.0029 11.6004C0.834236 11.6004 0.691569 11.5432 0.574902 11.4287C0.458236 11.3144 0.399902 11.1726 0.399902 11.0034V9.55589C0.399902 9.39667 0.42768 9.24483 0.483236 9.10039C0.538791 8.95595 0.62768 8.82261 0.749902 8.70039L8.6999 0.750391C8.82212 0.628168 8.95457 0.53928 9.09724 0.483724C9.23979 0.428168 9.38979 0.400391 9.54724 0.400391C9.70457 0.400391 9.85546 0.428168 9.9999 0.483724C10.1443 0.53928 10.2777 0.628168 10.3999 0.750391L11.2499 1.60039C11.3721 1.72261 11.461 1.85595 11.5166 2.00039C11.5721 2.14484 11.5999 2.29228 11.5999 2.44272C11.5999 2.60328 11.572 2.75628 11.5162 2.90172C11.4605 3.04717 11.3717 3.18006 11.2499 3.30039L3.2999 11.2504C3.17768 11.3726 3.04462 11.4615 2.90074 11.5171C2.75685 11.5726 2.60551 11.6004 2.44674 11.6004H1.0029ZM8.2674 3.73289L7.8499 3.30039L8.6999 4.15039L8.2674 3.73289Z" fill="#F7F7F8"/>
</svg>
    