<svg width="20" height="6" viewBox="0 0 20 6" fill="none" xmlns="http://www.w3.org/2000/svg">
    <path d="M2.5 5.5C1.8125 5.5 1.22396 5.25521 0.734375 4.76562C0.244792 4.27604 0 3.6875 0 3C0 2.3125 0.244792 1.72396 0.734375 1.23438C1.22396 0.744792 1.8125 0.5 2.5 0.5C3.1875 0.5 3.77604 0.744792 4.26562 1.23438C4.75521 1.72396 5 2.3125 5 3C5 3.6875 4.75521 4.27604 4.26562 4.76562C3.77604 5.25521 3.1875 5.5 2.5 5.5ZM10 5.5C9.3125 5.5 8.72396 5.25521 8.23438 4.76562C7.74479 4.27604 7.5 3.6875 7.5 3C7.5 2.3125 7.74479 1.72396 8.23438 1.23438C8.72396 0.744792 9.3125 0.5 10 0.5C10.6875 0.5 11.276 0.744792 11.7656 1.23438C12.2552 1.72396 12.5 2.3125 12.5 3C12.5 3.6875 12.2552 4.27604 11.7656 4.76562C11.276 5.25521 10.6875 5.5 10 5.5ZM17.5 5.5C16.8125 5.5 16.224 5.25521 15.7344 4.76562C15.2448 4.27604 15 3.6875 15 3C15 2.3125 15.2448 1.72396 15.7344 1.23438C16.224 0.744792 16.8125 0.5 17.5 0.5C18.1875 0.5 18.776 0.744792 19.2656 1.23438C19.7552 1.72396 20 2.3125 20 3C20 3.6875 19.7552 4.27604 19.2656 4.76562C18.776 5.25521 18.1875 5.5 17.5 5.5Z" fill="currentColor"/>
</svg>
    