<svg width="14" height="14" viewBox="0 0 14 14" fill="none" xmlns="http://www.w3.org/2000/svg">
    <path d="M6.99617 10.5C7.18102 10.5 7.33724 10.4375 7.46484 10.3124C7.59245 10.1874 7.65625 10.0324 7.65625 9.84758C7.65625 9.66273 7.59372 9.50651 7.46867 9.37891C7.34362 9.2513 7.18867 9.1875 7.00383 9.1875C6.81898 9.1875 6.66276 9.25003 6.53516 9.37508C6.40755 9.50013 6.34375 9.65508 6.34375 9.83992C6.34375 10.0248 6.40628 10.181 6.53133 10.3086C6.65638 10.4362 6.81133 10.5 6.99617 10.5ZM6.99617 7.875C7.18102 7.875 7.33724 7.81211 7.46484 7.68633C7.59245 7.56055 7.65625 7.40469 7.65625 7.21875V4.15625C7.65625 3.97031 7.59372 3.81445 7.46867 3.68867C7.34362 3.56289 7.18867 3.5 7.00383 3.5C6.81898 3.5 6.66276 3.56289 6.53516 3.68867C6.40755 3.81445 6.34375 3.97031 6.34375 4.15625V7.21875C6.34375 7.40469 6.40628 7.56055 6.53133 7.68633C6.65638 7.81211 6.81133 7.875 6.99617 7.875ZM7.0051 14C6.04163 14 5.13455 13.8177 4.28385 13.4531C3.43316 13.0885 2.6888 12.5872 2.05078 11.9492C1.41276 11.3112 0.911458 10.5671 0.546875 9.71688C0.182292 8.86667 0 7.95825 0 6.99161C0 6.02498 0.182292 5.11936 0.546875 4.27474C0.911458 3.43012 1.41276 2.6888 2.05078 2.05078C2.6888 1.41276 3.43292 0.911458 4.28312 0.546875C5.13333 0.182292 6.04175 0 7.00839 0C7.97502 0 8.88064 0.182292 9.72526 0.546875C10.5699 0.911458 11.3112 1.41276 11.9492 2.05078C12.5872 2.6888 13.0885 3.43146 13.4531 4.27875C13.8177 5.12616 14 6.03155 14 6.9949C14 7.95837 13.8177 8.86545 13.4531 9.71615C13.0885 10.5668 12.5872 11.3112 11.9492 11.9492C11.3112 12.5872 10.5685 13.0885 9.72125 13.4531C8.87384 13.8177 7.96846 14 7.0051 14ZM7 12.6875C8.57986 12.6875 9.92274 12.1345 11.0286 11.0286C12.1345 9.92274 12.6875 8.57986 12.6875 7C12.6875 5.42014 12.1345 4.07726 11.0286 2.97135C9.92274 1.86545 8.57986 1.3125 7 1.3125C5.42014 1.3125 4.07726 1.86545 2.97135 2.97135C1.86545 4.07726 1.3125 5.42014 1.3125 7C1.3125 8.57986 1.86545 9.92274 2.97135 11.0286C4.07726 12.1345 5.42014 12.6875 7 12.6875Z" fill="currentColor"/>
</svg>
    