<svg width="18" height="16" viewBox="0 0 18 16" fill="none" xmlns="http://www.w3.org/2000/svg">
    <path d="M1 16C0.716667 16 0.479167 15.9042 0.2875 15.7125C0.0958333 15.5208 0 15.2833 0 15C0 14.7167 0.0958333 14.4792 0.2875 14.2875C0.479167 14.0958 0.716667 14 1 14H17C17.2833 14 17.5208 14.0958 17.7125 14.2875C17.9042 14.4792 18 14.7167 18 15C18 15.2833 17.9042 15.5208 17.7125 15.7125C17.5208 15.9042 17.2833 16 17 16H1ZM1 9C0.716667 9 0.479167 8.90417 0.2875 8.7125C0.0958333 8.52083 0 8.28333 0 8C0 7.71667 0.0958333 7.47917 0.2875 7.2875C0.479167 7.09583 0.716667 7 1 7H17C17.2833 7 17.5208 7.09583 17.7125 7.2875C17.9042 7.47917 18 7.71667 18 8C18 8.28333 17.9042 8.52083 17.7125 8.7125C17.5208 8.90417 17.2833 9 17 9H1ZM1 2C0.716667 2 0.479167 1.90417 0.2875 1.7125C0.0958333 1.52083 0 1.28333 0 1C0 0.716667 0.0958333 0.479167 0.2875 0.2875C0.479167 0.0958334 0.716667 0 1 0H17C17.2833 0 17.5208 0.0958334 17.7125 0.2875C17.9042 0.479167 18 0.716667 18 1C18 1.28333 17.9042 1.52083 17.7125 1.7125C17.5208 1.90417 17.2833 2 17 2H1Z" fill="#F7F7F8"/>
</svg>
    