<svg width="100%" height="100%" viewBox="0 0 20 20" fill="none" xmlns="http://www.w3.org/2000/svg">
    <mask id="mask0_1592_7774" style="mask-type:alpha" maskUnits="userSpaceOnUse" x="0" y="0" width="20" height="20">
    <rect width="20" height="20" fill="currentColor"/>
    </mask>
    <g mask="url(#mask0_1592_7774)">
    <path d="M9.99398 13.8955C10.1929 13.8955 10.3618 13.8283 10.5007 13.6938C10.6395 13.5593 10.709 13.3926 10.709 13.1938C10.709 12.995 10.6418 12.8261 10.5073 12.6872C10.3727 12.5483 10.2061 12.4788 10.0073 12.4788C9.80843 12.4788 9.63954 12.5461 9.50065 12.6805C9.36176 12.8151 9.29232 12.9818 9.29232 13.1805C9.29232 13.3794 9.35954 13.5483 9.49398 13.6872C9.62857 13.8261 9.79523 13.8955 9.99398 13.8955ZM10.0067 10.9997C10.1971 10.9997 10.3618 10.9313 10.5007 10.7945C10.6395 10.6577 10.709 10.4934 10.709 10.3018V6.78092C10.709 6.58926 10.641 6.42502 10.505 6.28822C10.3691 6.15141 10.2059 6.08301 10.0154 6.08301C9.82503 6.08301 9.66037 6.15141 9.52148 6.28822C9.3826 6.42502 9.31315 6.58926 9.31315 6.78092V10.3018C9.31315 10.4934 9.38114 10.6577 9.51711 10.7945C9.65308 10.9313 9.81628 10.9997 10.0067 10.9997ZM10.0065 17.7913C8.9344 17.7913 7.92503 17.5881 6.97836 17.1818C6.03183 16.7752 5.20343 16.2162 4.49315 15.5047C3.78287 14.793 3.22461 13.9646 2.81836 13.0195C2.41211 12.0745 2.20898 11.0647 2.20898 9.99009C2.20898 8.9144 2.41218 7.90669 2.81857 6.96697C3.2251 6.02738 3.78412 5.20245 4.49565 4.49217C5.20732 3.7819 6.03572 3.22363 6.98086 2.81738C7.92586 2.41113 8.93565 2.20801 10.0102 2.20801C11.0859 2.20801 12.0936 2.4112 13.0334 2.81759C13.9729 3.22412 14.7979 3.78315 15.5082 4.49467C16.2184 5.20634 16.7767 6.03308 17.1829 6.97488C17.5892 7.91669 17.7923 8.92301 17.7923 9.99384C17.7923 11.0659 17.5891 12.0753 17.1827 13.022C16.7762 13.9685 16.2172 14.7969 15.5057 15.5072C14.794 16.2175 13.9672 16.7757 13.0254 17.182C12.0836 17.5882 11.0773 17.7913 10.0065 17.7913Z" fill="currentColor" fill-opacity="0.61"/>
    </g>
</svg>
    