<svg width="100%" height="100%" viewBox="0 0 20 20" fill="none" xmlns="http://www.w3.org/2000/svg">
<mask id="mask0_499_7622" style="mask-type:alpha" maskUnits="userSpaceOnUse" x="0" y="0" width="20" height="20">
<rect width="20" height="20" fill="#D9D9D9"/>
</mask>
<g mask="url(#mask0_499_7622)">
<path d="M9.99617 13.5C10.181 13.5 10.3372 13.4375 10.4648 13.3124C10.5924 13.1874 10.6562 13.0324 10.6562 12.8476C10.6562 12.6627 10.5937 12.5065 10.4687 12.3789C10.3436 12.2513 10.1887 12.1875 10.0038 12.1875C9.81898 12.1875 9.66276 12.25 9.53516 12.3751C9.40755 12.5001 9.34375 12.6551 9.34375 12.8399C9.34375 13.0248 9.40628 13.181 9.53133 13.3086C9.65638 13.4362 9.81133 13.5 9.99617 13.5ZM9.99617 10.875C10.181 10.875 10.3372 10.8121 10.4648 10.6863C10.5924 10.5605 10.6562 10.4047 10.6562 10.2188V7.15625C10.6562 6.97031 10.5937 6.81445 10.4687 6.68867C10.3436 6.56289 10.1887 6.5 10.0038 6.5C9.81898 6.5 9.66276 6.56289 9.53516 6.68867C9.40755 6.81445 9.34375 6.97031 9.34375 7.15625V10.2188C9.34375 10.4047 9.40628 10.5605 9.53133 10.6863C9.65638 10.8121 9.81133 10.875 9.99617 10.875ZM10.0051 17C9.04163 17 8.13455 16.8177 7.28385 16.4531C6.43316 16.0885 5.6888 15.5872 5.05078 14.9492C4.41276 14.3112 3.91146 13.5671 3.54688 12.7169C3.18229 11.8667 3 10.9582 3 9.99161C3 9.02498 3.18229 8.11936 3.54688 7.27474C3.91146 6.43012 4.41276 5.6888 5.05078 5.05078C5.6888 4.41276 6.43292 3.91146 7.28312 3.54688C8.13333 3.18229 9.04175 3 10.0084 3C10.975 3 11.8806 3.18229 12.7253 3.54688C13.5699 3.91146 14.3112 4.41276 14.9492 5.05078C15.5872 5.6888 16.0885 6.43146 16.4531 7.27875C16.8177 8.12616 17 9.03155 17 9.9949C17 10.9584 16.8177 11.8655 16.4531 12.7161C16.0885 13.5668 15.5872 14.3112 14.9492 14.9492C14.3112 15.5872 13.5685 16.0885 12.7213 16.4531C11.8738 16.8177 10.9685 17 10.0051 17ZM10 15.6875C11.5799 15.6875 12.9227 15.1345 14.0286 14.0286C15.1345 12.9227 15.6875 11.5799 15.6875 10C15.6875 8.42014 15.1345 7.07726 14.0286 5.97135C12.9227 4.86545 11.5799 4.3125 10 4.3125C8.42014 4.3125 7.07726 4.86545 5.97135 5.97135C4.86545 7.07726 4.3125 8.42014 4.3125 10C4.3125 11.5799 4.86545 12.9227 5.97135 14.0286C7.07726 15.1345 8.42014 15.6875 10 15.6875Z" fill="currentColor"/>
</g>
</svg>
