<svg viewBox="0 0 115 20" fill="none" xmlns="http://www.w3.org/2000/svg">
    <g clip-path="url(#clip0_499_9778)">
    <path d="M0.916198 19.9961V15.0429H11.5917V13.859H7.27489L1.14135 10.5618V1.77204L0.0078125 -0.00390625H28.5171V4.42472H7.95812V5.1291H28.5171V8.55361H7.95812V9.34042H28.7501V13.859H19.3246V15.0429H31.1414V-0.00390625H37.733V19.9961H0.916198Z" fill="white"/>
    <path d="M39.782 1.77204L38.6484 -0.00390625H61.0242L66.8161 19.9961H59.7742L55.4109 4.95675H46.4823V19.9961H39.782V1.77204ZM67.9497 -0.00390625H74.5413V6.1557H77.2665V12.0755H74.5413V19.9886H67.9497V-0.00390625Z" fill="white"/>
    <path d="M78.6648 1.77204L77.5312 -0.00390625H115.016V8.15645H100.707V9.40786H115.016V13.0497H78.6648V9.40786H92.9738V8.15645H83.2067L78.6648 5.96087V1.77204ZM85.4816 16.137H115.016V19.9961H83.2067L78.6648 17.8005V13.8515H85.4816V16.1295V16.137ZM108.424 4.61955V3.52551H85.3651V4.61955H108.424Z" fill="white"/>
    </g>
    <defs>
    <clipPath id="clip0_499_9778">
    <rect width="115" height="20" fill="white"/>
    </clipPath>
    </defs>
</svg>
    