<svg width="100%" height="100%" viewBox="0 0 674 210" fill="none" xmlns="http://www.w3.org/2000/svg">
    <g clip-path="url(#clip0_1343_3655)">
        <path d="M47.8387 40.6817V50.6763L144.277 50.6763L136.496 91.8161L47.8387 91.8161V101.833L156.288 101.833V142.424H102.085V161.318H156.288V209.91H0.496094L0.496094 161.318H54.699V142.424H0.496094L0.496094 0.0898438L156.288 0.0898437V40.6817L47.8387 40.6817Z" fill="currentColor"/>
        <path d="M215.336 209.91L215.336 0.0898438L166.021 0.0898438L166.021 209.91H215.336Z" fill="currentColor"/>
        <path d="M385.461 209.91H332.508L302.831 131.334L284.661 209.91H225.176L273.68 0.0898437L333.165 0.0898437L310.634 97.5805L338.623 85.9202L385.461 209.91Z" fill="currentColor"/>
        <path d="M452.31 89.8873V142.424H435.346V209.91H385.461V0.0898438L435.346 0.0898437V89.8873H452.31Z" fill="currentColor"/>
        <path d="M673.505 167.323V209.909H467.434V152.923L524.42 148.736V167.323H673.505Z" fill="currentColor"/>
        <path d="M673.505 89.8873V0.0898437L467.434 0.0898438V89.8873H540.179V101.131H467.434V142.709H673.505V101.131H600.738V89.8873H673.505ZM514.776 50.9612V38.994L626.163 38.994V50.9612L514.776 50.9612Z" fill="currentColor"/>
    </g>
    <defs>
    <clipPath id="clip0_1343_3655">
        <rect width="673.01" height="209.82" fill="white" transform="translate(0.495117 0.0898438)"/>
    </clipPath>
    </defs>
</svg>
    