<svg width="100%" height="100%" viewBox="0 0 61 24" fill="none" xmlns="http://www.w3.org/2000/svg">
    <g clip-path="url(#clip0_1629_9352)">
    <path d="M4.72067 6.26727V7.15831L13.3183 7.15831L12.6247 10.826H4.72067V11.719H14.3891V15.3378H9.55686V17.0222H14.3891L14.3891 21.3542H0.5L0.5 17.0222H5.33228V15.3378H0.5L0.5 2.64844L14.3891 2.64844V6.26727L4.72067 6.26727Z" fill="white"/>
    <path d="M19.6543 21.3542L19.6543 2.64844L15.2578 2.64844L15.2578 21.3542H19.6543Z" fill="white"/>
    <path d="M34.821 21.3542H30.1001L27.4543 14.3491L25.8344 21.3542H20.5312L24.8555 2.64844H30.1587L28.15 11.3399L30.6452 10.3004L34.821 21.3542Z" fill="white"/>
    <path d="M40.7801 10.654V15.3378H39.2677V21.3542H34.8203V2.64844L39.2677 2.64844V10.654H40.7801Z" fill="white"/>
    <path d="M60.5006 17.5574V21.354H42.1289V16.2736L47.2093 15.9004V17.5574H60.5006Z" fill="white"/>
    <path d="M60.5006 10.654V2.64844L42.1289 2.64844V10.654H48.6143V11.6565H42.1289V15.3632L60.5006 15.3632V11.6565L54.0132 11.6565V10.654L60.5006 10.654ZM46.3496 7.18371V6.11682L56.2799 6.11682V7.18371L46.3496 7.18371Z" fill="white"/>
    </g>
    <defs>
    <clipPath id="clip0_1629_9352">
    <rect width="60" height="18.7058" fill="white" transform="translate(0.5 2.64746)"/>
    </clipPath>
    </defs>
</svg>
    