<svg width="80" height="32" viewBox="0 0 80 32" fill="none" xmlns="http://www.w3.org/2000/svg">
    <g clip-path="url(#clip0_1592_7141)">
    <path d="M5.62756 8.35588V9.54392H17.0911L16.1662 14.4342L5.62756 14.4342V15.6248L18.5189 15.6248V20.4499H12.0758V22.6957H18.5189V28.4718H0L0 22.6957H6.44304V20.4499H0L0 3.53076L18.5189 3.53076V8.35588H5.62756Z" fill="white"/>
    <path d="M25.5371 28.4718L25.5371 3.53076L19.6751 3.53076L19.6751 28.4718H25.5371Z" fill="white"/>
    <path d="M45.76 28.4718H39.4654L35.9378 19.1316L33.778 28.4718H26.707L32.4727 3.53076L39.5436 3.53076L36.8653 15.1194L40.1923 13.7333L45.76 28.4718Z" fill="white"/>
    <path d="M53.7061 14.2049V20.4499H51.6895V28.4718H45.7598V3.53076L51.6895 3.53076V14.2049H53.7061Z" fill="white"/>
    <path d="M79.9994 23.409V28.4713H55.5039V21.6973L62.2778 21.1997V23.409H79.9994Z" fill="white"/>
    <path d="M79.9994 14.2049V3.53076L55.5039 3.53076V14.2049H64.1511V15.5414H55.5039V20.4838H79.9994V15.5414L71.3497 15.5414V14.2049L79.9994 14.2049ZM61.1315 9.57779V8.15527H74.3719V9.57779H61.1315Z" fill="white"/>
    </g>
    <defs>
    <clipPath id="clip0_1592_7141">
    <rect width="80" height="24.9411" fill="white" transform="translate(0 3.5293)"/>
    </clipPath>
    </defs>
</svg>
    