<svg width="100%" height="100%" viewBox="0 0 28 28" fill="none" xmlns="http://www.w3.org/2000/svg">
<path fill-rule="evenodd" clip-rule="evenodd" d="M5.34697 25.0804C4.41148 24.9805 3.53701 24.568 2.86489 23.9097C2.19278 23.2514 1.76228 22.3856 1.64297 21.4524C1.34297 19.0424 1.04297 16.5524 1.04297 14.0004C1.04297 12.1224 1.20697 10.2764 1.41097 8.47441C1.42102 8.38617 1.45449 8.30224 1.50789 8.23129C1.5613 8.16034 1.63271 8.10496 1.71472 8.07089C1.79672 8.03683 1.88635 8.02531 1.97431 8.03753C2.06227 8.04975 2.14536 8.08527 2.21497 8.14041L10.749 14.8704C11.675 15.6004 12.8198 15.9973 13.999 15.9973C15.1781 15.9973 16.3229 15.6004 17.249 14.8704L25.785 8.14041C25.8546 8.08579 25.9375 8.05072 26.0252 8.03878C26.1128 8.02685 26.2021 8.03849 26.2838 8.07251C26.3655 8.10652 26.4366 8.16169 26.4899 8.23233C26.5432 8.30296 26.5767 8.38652 26.587 8.47441C26.791 10.2764 26.955 12.1224 26.955 14.0004C26.955 16.5524 26.655 19.0444 26.355 21.4524C26.2357 22.3856 25.8052 23.2514 25.133 23.9097C24.4609 24.568 23.5865 24.9805 22.651 25.0804L22.383 25.1084C19.675 25.3904 16.871 25.6844 13.999 25.6844C11.127 25.6844 8.32297 25.3904 5.61497 25.1084L5.34697 25.0804ZM25.559 4.57841C25.6288 4.67642 25.6575 4.79792 25.6388 4.91682C25.6201 5.03572 25.5555 5.14255 25.459 5.21441L15.701 12.9064C15.2163 13.2892 14.6166 13.4975 13.999 13.4975C13.3813 13.4975 12.7817 13.2892 12.297 12.9064L2.53897 5.21441C2.44241 5.14255 2.37786 5.03572 2.35916 4.91682C2.34047 4.79792 2.36912 4.67642 2.43897 4.57841C2.78309 4.11622 3.21905 3.73017 3.71949 3.4445C4.21992 3.15883 4.77401 2.97972 5.34697 2.91841L5.61497 2.89241C8.32297 2.60841 11.127 2.31641 13.999 2.31641C16.871 2.31641 19.675 2.60841 22.383 2.89241L22.651 2.92041C23.2238 2.98148 23.7778 3.16028 24.2782 3.4456C24.7786 3.73091 25.2147 4.11658 25.559 4.57841Z" fill="currentColor"/>
</svg>
