<svg width="24" height="24" viewBox="0 0 24 24" fill="none" xmlns="http://www.w3.org/2000/svg">
<mask id="mask0_499_8414" style="mask-type:alpha" maskUnits="userSpaceOnUse" x="0" y="0" width="24" height="24">
<rect width="24" height="24" fill="#D9D9D9"/>
</mask>
<g mask="url(#mask0_499_8414)">
<path d="M10.0969 19.5531C8.59479 19.1302 7.36979 18.3026 6.42188 17.0703C5.47396 15.838 5 14.4198 5 12.8156C5 11.9844 5.13854 11.1932 5.41563 10.4422C5.69271 9.69115 6.08646 9.00208 6.59688 8.375C6.75729 8.2 6.95417 8.10885 7.1875 8.10156C7.42083 8.09427 7.63229 8.18542 7.82188 8.375C7.98229 8.53542 8.06615 8.73229 8.07344 8.96563C8.08073 9.19896 8.00417 9.41771 7.84375 9.62188C7.49375 10.074 7.22396 10.5698 7.03437 11.1094C6.84479 11.649 6.75 12.2177 6.75 12.8156C6.75 13.9969 7.09635 15.0505 7.78906 15.9766C8.48177 16.9026 9.375 17.5333 10.4688 17.8688C10.6583 17.9271 10.8151 18.0365 10.9391 18.1969C11.063 18.3573 11.125 18.5323 11.125 18.7219C11.125 19.0135 11.0229 19.2432 10.8187 19.4109C10.6146 19.5786 10.374 19.626 10.0969 19.5531ZM13.9031 19.5531C13.626 19.626 13.3854 19.575 13.1813 19.4C12.9771 19.225 12.875 18.9917 12.875 18.7C12.875 18.525 12.937 18.3573 13.0609 18.1969C13.1849 18.0365 13.3417 17.9271 13.5312 17.8688C14.625 17.5188 15.5182 16.8844 16.2109 15.9656C16.9036 15.0469 17.25 13.9969 17.25 12.8156C17.25 11.3573 16.7396 10.1177 15.7188 9.09687C14.6979 8.07604 13.4583 7.56562 12 7.56562H11.9344L12.2844 7.91563C12.4448 8.07604 12.525 8.28021 12.525 8.52813C12.525 8.77604 12.4448 8.98021 12.2844 9.14062C12.124 9.30104 11.9198 9.38125 11.6719 9.38125C11.424 9.38125 11.2198 9.30104 11.0594 9.14062L9.22188 7.30313C9.13438 7.21563 9.0724 7.12083 9.03594 7.01875C8.99948 6.91667 8.98125 6.80729 8.98125 6.69062C8.98125 6.57396 8.99948 6.46458 9.03594 6.3625C9.0724 6.26042 9.13438 6.16563 9.22188 6.07812L11.0594 4.24063C11.2198 4.08021 11.424 4 11.6719 4C11.9198 4 12.124 4.08021 12.2844 4.24063C12.4448 4.40104 12.525 4.60521 12.525 4.85313C12.525 5.10104 12.4448 5.30521 12.2844 5.46563L11.9344 5.81563H12C13.9542 5.81563 15.6094 6.49375 16.9656 7.85C18.3219 9.20625 19 10.8615 19 12.8156C19 14.4052 18.526 15.8198 17.5781 17.0594C16.6302 18.299 15.4052 19.1302 13.9031 19.5531Z" fill="#AEB0B6" fill-opacity="0.28"/>
</g>
</svg>
