<svg width="16" height="16" viewBox="0 0 16 16" fill="none" xmlns="http://www.w3.org/2000/svg">
    <mask id="mask0_499_8693" style="mask-type:alpha" maskUnits="userSpaceOnUse" x="0" y="0" width="16" height="16">
    <rect width="16" height="16" fill="#D9D9D9"/>
    </mask>
    <g mask="url(#mask0_499_8693)">
    <path d="M4.39553 14.1999C4.06531 14.1999 3.78353 14.0824 3.5502 13.8474C3.31686 13.6124 3.2002 13.3299 3.2002 12.9999V6.79987C3.2002 6.46987 3.3177 6.18737 3.5527 5.95237C3.7877 5.71737 4.0702 5.59987 4.4002 5.59987H5.8002C5.9702 5.59987 6.1127 5.65704 6.2277 5.77137C6.3427 5.8857 6.4002 6.02737 6.4002 6.19637C6.4002 6.36537 6.3427 6.5082 6.2277 6.62487C6.1127 6.74154 5.9702 6.79987 5.8002 6.79987H4.4002V12.9999H11.6002V6.79987H10.2002C10.0302 6.79987 9.8877 6.7427 9.7727 6.62837C9.65769 6.51404 9.6002 6.37237 9.6002 6.20337C9.6002 6.03437 9.65769 5.89154 9.7727 5.77487C9.8877 5.6582 10.0302 5.59987 10.2002 5.59987H11.6002C11.9302 5.59987 12.2127 5.71737 12.4477 5.95237C12.6827 6.18737 12.8002 6.46987 12.8002 6.79987V12.9999C12.8002 13.3299 12.6826 13.6124 12.4475 13.8474C12.2124 14.0824 11.9298 14.1999 11.5995 14.1999H4.39553ZM7.4002 3.09987L6.8627 3.63737C6.74325 3.75681 6.60297 3.81654 6.44186 3.81654C6.28075 3.81654 6.13642 3.75543 6.00886 3.6332C5.89197 3.51098 5.83353 3.36931 5.83353 3.2082C5.83353 3.04709 5.89397 2.90609 6.01486 2.7852L7.5857 1.21437C7.70647 1.09359 7.84564 1.0332 8.0032 1.0332C8.16075 1.0332 8.29864 1.09431 8.41686 1.21654L9.98353 2.7832C10.1058 2.90543 10.1669 3.04431 10.1669 3.19987C10.1669 3.35543 10.1084 3.49431 9.99153 3.61654C9.86397 3.73876 9.7187 3.79987 9.5557 3.79987C9.39281 3.79987 9.25208 3.73876 9.13353 3.61654L8.6002 3.09987V8.79987C8.6002 8.96987 8.54303 9.11237 8.4287 9.22737C8.31436 9.34237 8.1727 9.39987 8.0037 9.39987C7.8347 9.39987 7.69186 9.34237 7.5752 9.22737C7.45853 9.11237 7.4002 8.96987 7.4002 8.79987V3.09987Z" fill="#F7F7F8"/>
    </g>
</svg>
    