<svg width="100%" height="44" viewBox="0 0 375 44" fill="none" xmlns="http://www.w3.org/2000/svg">
    <path d="M35.6201 16.1675C36.1866 16.1675 36.7237 16.2725 37.2315 16.4824C37.7393 16.6875 38.1885 17.0098 38.5791 17.4492C38.9746 17.8838 39.2847 18.4429 39.5093 19.1265C39.7339 19.8052 39.8462 20.623 39.8462 21.5801V21.5947C39.8462 22.7812 39.6753 23.7969 39.3335 24.6416C38.9917 25.4863 38.501 26.1357 37.8614 26.5898C37.2266 27.0391 36.4673 27.2637 35.5835 27.2637C34.9341 27.2637 34.3482 27.1465 33.8257 26.9121C33.3081 26.6729 32.8784 26.3457 32.5367 25.9307C32.1997 25.5107 31.9727 25.0322 31.8555 24.4951L31.8409 24.4146H33.6939L33.7232 24.4878C33.8159 24.7319 33.9478 24.9468 34.1187 25.1323C34.2945 25.3179 34.5044 25.4619 34.7486 25.5645C34.9976 25.6621 35.2759 25.7109 35.5835 25.7109C36.1402 25.7109 36.5943 25.5474 36.9458 25.2202C37.3023 24.8882 37.5684 24.4463 37.7442 23.8945C37.9248 23.3379 38.0274 22.7227 38.0518 22.0488C38.0567 21.9756 38.0591 21.9048 38.0591 21.8364C38.0591 21.7632 38.0591 21.6924 38.0591 21.624L37.7295 19.8589C37.7295 19.4585 37.6368 19.0947 37.4512 18.7676C37.2657 18.4404 37.0142 18.1816 36.6968 17.9912C36.3843 17.8008 36.0303 17.7056 35.6348 17.7056C35.2539 17.7056 34.9048 17.7983 34.5874 17.9839C34.2701 18.1694 34.0161 18.4233 33.8257 18.7456C33.6353 19.063 33.5401 19.4194 33.5401 19.8149V19.8296C33.5401 20.2397 33.6304 20.6035 33.8111 20.9209C33.9917 21.2334 34.2383 21.48 34.5508 21.6606C34.8633 21.8413 35.2198 21.9316 35.6201 21.9316C36.0205 21.9316 36.3794 21.8438 36.6968 21.668C37.0142 21.4922 37.2657 21.248 37.4512 20.9355C37.6368 20.623 37.7295 20.269 37.7295 19.8735V19.8589H38.169V21.8071H37.9126C37.7857 22.0854 37.5977 22.3442 37.3487 22.5835C37.0996 22.8228 36.792 23.0156 36.4258 23.1621C36.0645 23.3086 35.6397 23.3818 35.1514 23.3818C34.4776 23.3818 33.8819 23.2305 33.3643 22.9277C32.8467 22.625 32.439 22.21 32.1411 21.6826C31.8482 21.1553 31.7017 20.5596 31.7017 19.8955V19.8809C31.7017 19.1631 31.8677 18.5259 32.1997 17.9692C32.5367 17.4077 33.0005 16.9683 33.5913 16.6509C34.187 16.3286 34.8633 16.1675 35.6201 16.1675ZM42.9344 25.5791C42.6024 25.5791 42.3241 25.4692 42.0995 25.2495C41.8797 25.0249 41.7699 24.7515 41.7699 24.4292C41.7699 24.1021 41.8797 23.8286 42.0995 23.6089C42.3241 23.3843 42.6024 23.272 42.9344 23.272C43.2713 23.272 43.5497 23.3843 43.7694 23.6089C43.9891 23.8286 44.099 24.1021 44.099 24.4292C44.099 24.7515 43.9891 25.0249 43.7694 25.2495C43.5497 25.4692 43.2713 25.5791 42.9344 25.5791ZM42.9344 20.1445C42.6024 20.1445 42.3241 20.0347 42.0995 19.8149C41.8797 19.5903 41.7699 19.3169 41.7699 18.9946C41.7699 18.6675 41.8797 18.394 42.0995 18.1743C42.3241 17.9497 42.6024 17.8374 42.9344 17.8374C43.2713 17.8374 43.5497 17.9497 43.7694 18.1743C43.9891 18.394 44.099 18.6675 44.099 18.9946C44.099 19.3169 43.9891 19.5903 43.7694 19.8149C43.5497 20.0347 43.2713 20.1445 42.9344 20.1445ZM51.1496 27V24.9712H45.9787V23.4258C46.257 22.9521 46.5353 22.4761 46.8136 21.9976C47.0968 21.519 47.3825 21.043 47.6706 20.5693C47.9635 20.0908 48.2541 19.6196 48.5421 19.1558C48.8351 18.687 49.1256 18.2256 49.4137 17.7715C49.7067 17.3125 49.9997 16.8657 50.2926 16.4312H52.9513V23.4111H54.3795V24.9712H52.9513V27H51.1496ZM47.7365 23.4551H51.1789V17.9399H51.069C50.8542 18.272 50.632 18.6138 50.4025 18.9653C50.1779 19.3169 49.9508 19.6758 49.7213 20.042C49.4919 20.4082 49.2648 20.7769 49.0402 21.1479C48.8156 21.5142 48.5934 21.8828 48.3737 22.2539C48.154 22.6201 47.9416 22.9839 47.7365 23.3452V23.4551ZM58.5151 27V18.2915H58.3833L55.7539 20.1445V18.3721L58.5151 16.4312H60.3974V27H58.5151Z" fill="white"/>
    <path fill-rule="evenodd" clip-rule="evenodd" d="M308.078 18.2872C308.002 18.471 308.002 18.704 308.002 19.1699V26.8366C308.002 27.3025 308.002 27.5355 308.078 27.7193C308.18 27.9643 308.374 28.159 308.619 28.2605C308.803 28.3366 309.036 28.3366 309.502 28.3366C309.968 28.3366 310.201 28.3366 310.385 28.2605C310.63 28.159 310.824 27.9643 310.926 27.7193C311.002 27.5355 311.002 27.3025 311.002 26.8366V19.1699C311.002 18.704 311.002 18.471 310.926 18.2872C310.824 18.0422 310.63 17.8475 310.385 17.746C310.201 17.6699 309.968 17.6699 309.502 17.6699C309.036 17.6699 308.803 17.6699 308.619 17.746C308.374 17.8475 308.18 18.0422 308.078 18.2872ZM303.335 21.5033C303.335 21.0373 303.335 20.8043 303.411 20.6206C303.513 20.3755 303.708 20.1809 303.953 20.0794C304.136 20.0033 304.369 20.0033 304.835 20.0033C305.301 20.0033 305.534 20.0033 305.718 20.0794C305.963 20.1809 306.158 20.3755 306.259 20.6206C306.335 20.8043 306.335 21.0373 306.335 21.5033V26.8366C306.335 27.3025 306.335 27.5355 306.259 27.7193C306.158 27.9643 305.963 28.159 305.718 28.2605C305.534 28.3366 305.301 28.3366 304.835 28.3366C304.369 28.3366 304.136 28.3366 303.953 28.2605C303.708 28.159 303.513 27.9643 303.411 27.7193C303.335 27.5355 303.335 27.3025 303.335 26.8366V21.5033ZM298.745 22.9539C298.669 23.1377 298.669 23.3706 298.669 23.8366V26.8366C298.669 27.3025 298.669 27.5355 298.745 27.7193C298.846 27.9643 299.041 28.159 299.286 28.2605C299.47 28.3366 299.703 28.3366 300.169 28.3366C300.635 28.3366 300.868 28.3366 301.051 28.2605C301.296 28.159 301.491 27.9643 301.592 27.7193C301.669 27.5355 301.669 27.3025 301.669 26.8366V23.8366C301.669 23.3706 301.669 23.1377 301.592 22.9539C301.491 22.7089 301.296 22.5142 301.051 22.4127C300.868 22.3366 300.635 22.3366 300.169 22.3366C299.703 22.3366 299.47 22.3366 299.286 22.4127C299.041 22.5142 298.846 22.7089 298.745 22.9539ZM294.078 24.9539C294.002 25.1377 294.002 25.3706 294.002 25.8366V26.8366C294.002 27.3025 294.002 27.5355 294.078 27.7193C294.18 27.9643 294.374 28.159 294.619 28.2605C294.803 28.3366 295.036 28.3366 295.502 28.3366C295.968 28.3366 296.201 28.3366 296.385 28.2605C296.63 28.159 296.824 27.9643 296.926 27.7193C297.002 27.5355 297.002 27.3025 297.002 26.8366V25.8366C297.002 25.3706 297.002 25.1377 296.926 24.9539C296.824 24.7089 296.63 24.5142 296.385 24.4127C296.201 24.3366 295.968 24.3366 295.502 24.3366C295.036 24.3366 294.803 24.3366 294.619 24.4127C294.374 24.5142 294.18 24.7089 294.078 24.9539Z" fill="white"/>
    <path fill-rule="evenodd" clip-rule="evenodd" d="M325.848 26.2154C325.909 26.1547 325.942 26.0711 325.94 25.9841C325.939 25.8974 325.902 25.8151 325.839 25.7571C324.586 24.6747 322.751 24.6747 321.498 25.7571C321.435 25.8151 321.398 25.8974 321.397 25.9841C321.395 26.0707 321.428 26.1544 321.489 26.2154L323.451 28.2374C323.509 28.2967 323.587 28.3301 323.669 28.3301C323.751 28.3301 323.829 28.2967 323.886 28.2374L325.848 26.2154ZM323.669 23.4224C324.865 23.422 326.018 23.876 326.904 24.696C327.024 24.8124 327.213 24.8097 327.329 24.6904L328.464 23.52C328.523 23.4584 328.557 23.3754 328.556 23.2887C328.555 23.202 328.52 23.1197 328.459 23.0594C325.76 20.495 321.58 20.495 318.881 23.0594C318.82 23.1197 318.785 23.2024 318.784 23.2887C318.783 23.3754 318.816 23.4587 318.876 23.52L320.01 24.6904C320.127 24.8097 320.316 24.8124 320.436 24.696C321.322 23.8767 322.474 23.4227 323.669 23.4224ZM323.668 19.6147C325.845 19.6147 327.938 20.469 329.515 22.0003C329.634 22.1187 329.824 22.1173 329.941 21.997L331.076 20.8267C331.135 20.766 331.168 20.6833 331.168 20.5977C331.167 20.5117 331.134 20.4297 331.074 20.3693C326.934 16.317 320.402 16.317 316.263 20.3693C316.203 20.4293 316.169 20.5117 316.168 20.5973C316.167 20.6833 316.2 20.766 316.259 20.8267L317.395 21.997C317.512 22.1173 317.702 22.119 317.821 22.0003C319.398 20.4687 321.492 19.6147 323.668 19.6147Z" fill="white"/>
    <path opacity="0.5" d="M359.336 20.9971V24.9971C360.141 24.6583 360.664 23.8702 360.664 22.9971C360.664 22.1239 360.141 21.3358 359.336 20.9971Z" fill="white"/>
    <rect opacity="0.4" x="336.836" y="17.8301" width="21" height="10.3333" rx="2.5" stroke="white"/>
    <rect x="338.336" y="19.3301" width="18" height="7.33333" rx="1.33333" fill="white"/>
</svg>
    